<svg xmlns="http://www.w3.org/2000/svg" xmlns:xlink="http://www.w3.org/1999/xlink" width="6000" zoomAndPan="magnify" viewBox="0 0 4500 1499.999933" height="2000" preserveAspectRatio="xMidYMid meet" version="1.0"><defs><g/><clipPath id="2e080fc490"><path d="M 155.164062 157 L 1153 157 L 1153 1343 L 155.164062 1343 Z M 155.164062 157 " clip-rule="nonzero"/></clipPath><clipPath id="c930a37df3"><path d="M 1132.957031 784.488281 L 212.601562 1337.136719 C 200.886719 1344.171875 186.296875 1344.359375 174.40625 1337.628906 C 162.515625 1330.898438 155.164062 1318.292969 155.164062 1304.632812 L 155.164062 195.371094 C 155.164062 181.707031 162.515625 169.101562 174.40625 162.371094 C 186.296875 155.644531 200.886719 155.832031 212.601562 162.863281 L 1132.957031 715.511719 C 1145.070312 722.785156 1152.476562 735.875 1152.476562 750 C 1152.476562 764.128906 1145.070312 777.21875 1132.957031 784.488281 Z M 1132.957031 784.488281 " clip-rule="nonzero"/></clipPath><clipPath id="3159f1e6f6"><path d="M 101.972656 491 L 542.929688 491 L 542.929688 1008.371094 L 101.972656 1008.371094 Z M 101.972656 491 " clip-rule="nonzero"/></clipPath><clipPath id="03301c0aaf"><path d="M 522.863281 784.488281 L 159.40625 1002.734375 C 147.695312 1009.765625 133.101562 1009.953125 121.210938 1003.226562 C 109.320312 996.496094 101.972656 983.890625 101.972656 970.226562 L 101.972656 529.773438 C 101.972656 516.109375 109.320312 503.503906 121.210938 496.773438 C 133.101562 490.042969 147.695312 490.234375 159.40625 497.265625 L 522.863281 715.511719 C 534.972656 722.78125 542.382812 735.875 542.382812 750 C 542.382812 764.125 534.972656 777.214844 522.863281 784.488281 Z M 522.863281 784.488281 " clip-rule="nonzero"/></clipPath></defs><rect x="-450" width="5400" fill="#ffffff" y="-149.999993" height="1799.99992" fill-opacity="1"/><rect x="-450" width="5400" fill="#ffffff" y="-149.999993" height="1799.99992" fill-opacity="1"/><g fill="#9400d3" fill-opacity="1"><g transform="translate(1228.19613, 1035.599948)"><g><path d="M 216.484375 0 L 133.5625 0 C 103.226562 0 79.742188 -7.210938 63.109375 -21.640625 C 46.472656 -36.078125 38.15625 -56.503906 38.15625 -82.921875 L 38.15625 -559.9375 L 161.453125 -559.9375 L 161.453125 -125.484375 C 161.453125 -114.234375 164.265625 -107.140625 169.890625 -104.203125 C 175.515625 -101.273438 180.773438 -99.8125 185.671875 -99.8125 L 216.484375 -99.8125 Z M 216.484375 0 "/></g></g></g><g fill="#9400d3" fill-opacity="1"><g transform="translate(1461.538714, 1035.599948)"><g><path d="M 240.703125 8.8125 C 196.671875 8.8125 158.390625 -0.484375 125.859375 -19.078125 C 93.328125 -37.671875 68.128906 -62.988281 50.265625 -95.03125 C 32.410156 -127.082031 23.484375 -163.65625 23.484375 -204.75 C 23.484375 -231.164062 27.519531 -257.335938 35.59375 -283.265625 C 43.664062 -309.203125 56.382812 -332.929688 73.75 -354.453125 C 91.125 -375.984375 113.265625 -393.109375 140.171875 -405.828125 C 167.078125 -418.546875 199.363281 -424.90625 237.03125 -424.90625 C 264.425781 -424.90625 290.96875 -420.867188 316.65625 -412.796875 C 342.34375 -404.722656 365.335938 -391.878906 385.640625 -374.265625 C 405.941406 -356.648438 422.085938 -333.773438 434.078125 -305.640625 C 446.066406 -277.515625 452.0625 -243.394531 452.0625 -203.28125 L 452.0625 -182 L 152.640625 -182 C 156.066406 -159.488281 163.160156 -141.628906 173.921875 -128.421875 C 182.734375 -117.660156 193.375 -109.710938 205.84375 -104.578125 C 218.320312 -99.441406 232.144531 -96.875 247.3125 -96.875 C 265.90625 -96.875 281.679688 -101.519531 294.640625 -110.8125 C 307.609375 -120.101562 316.539062 -131.113281 321.4375 -143.84375 L 445.453125 -143.84375 C 437.617188 -116.4375 425.140625 -91.113281 408.015625 -67.875 C 390.898438 -44.644531 368.519531 -26.054688 340.875 -12.109375 C 313.238281 1.835938 279.847656 8.8125 240.703125 8.8125 Z M 156.3125 -269.328125 L 327.296875 -269.328125 C 326.316406 -274.222656 324.484375 -280.09375 321.796875 -286.9375 C 319.109375 -293.789062 314.335938 -300.394531 307.484375 -306.75 C 298.679688 -315.5625 288.648438 -321.800781 277.390625 -325.46875 C 266.140625 -329.132812 254.15625 -330.96875 241.4375 -330.96875 C 229.207031 -330.96875 217.34375 -329.132812 205.84375 -325.46875 C 194.351562 -321.800781 184.203125 -315.5625 175.390625 -306.75 C 168.546875 -299.90625 163.898438 -293.179688 161.453125 -286.578125 C 159.003906 -279.972656 157.289062 -274.222656 156.3125 -269.328125 Z M 156.3125 -269.328125 "/></g></g></g><g fill="#9400d3" fill-opacity="1"><g transform="translate(1937.029148, 1035.599948)"><g><path d="M 160.71875 8.8125 C 135.757812 8.8125 113.003906 4.164062 92.453125 -5.125 C 71.910156 -14.425781 55.398438 -28.375 42.921875 -46.96875 C 30.453125 -65.5625 24.21875 -88.800781 24.21875 -116.6875 C 24.21875 -141.632812 29.109375 -162.179688 38.890625 -178.328125 C 48.679688 -194.472656 61.160156 -207.4375 76.328125 -217.21875 C 91.003906 -227.007812 107.144531 -234.226562 124.75 -238.875 C 142.363281 -243.519531 159 -247.3125 174.65625 -250.25 L 282.53125 -269.328125 C 281.0625 -290.359375 275.4375 -306.503906 265.65625 -317.765625 C 256.363281 -327.546875 242.421875 -332.4375 223.828125 -332.4375 C 209.640625 -332.4375 196.550781 -327.664062 184.5625 -318.125 C 172.582031 -308.582031 165.125 -295.007812 162.1875 -277.40625 L 39.625 -277.40625 C 45.007812 -312.132812 56.992188 -340.382812 75.578125 -362.15625 C 94.171875 -383.925781 116.675781 -399.828125 143.09375 -409.859375 C 169.519531 -419.890625 196.675781 -424.90625 224.5625 -424.90625 C 249.019531 -424.90625 272.5 -421.601562 295 -415 C 317.507812 -408.394531 337.082031 -398 353.71875 -383.8125 C 370.84375 -369.132812 382.953125 -352.253906 390.046875 -333.171875 C 397.140625 -314.085938 401.421875 -293.171875 402.890625 -270.421875 C 404.359375 -247.671875 405.09375 -223.332031 405.09375 -197.40625 L 405.09375 0 L 281.796875 0 L 281.796875 -50.640625 C 274.953125 -34.492188 265.171875 -22.015625 252.453125 -13.203125 C 240.210938 -4.890625 226.144531 0.851562 210.25 4.03125 C 194.351562 7.21875 177.84375 8.8125 160.71875 8.8125 Z M 196.671875 -84.390625 C 211.347656 -84.390625 226.269531 -87.816406 241.4375 -94.671875 C 258.5625 -102.492188 269.9375 -113.375 275.5625 -127.3125 C 281.1875 -141.257812 284.242188 -159.488281 284.734375 -182 L 209.15625 -167.3125 C 195.457031 -164.875 184.9375 -162.1875 177.59375 -159.25 C 170.257812 -156.3125 163.898438 -152.394531 158.515625 -147.5 C 155.085938 -144.082031 152.394531 -140.289062 150.4375 -136.125 C 148.476562 -131.96875 147.5 -126.957031 147.5 -121.09375 C 147.5 -107.875 152.390625 -98.453125 162.171875 -92.828125 C 171.960938 -87.203125 183.460938 -84.390625 196.671875 -84.390625 Z M 196.671875 -84.390625 "/></g></g></g><g fill="#9400d3" fill-opacity="1"><g transform="translate(2378.031855, 1035.599948)"><g><path d="M 163.65625 0 L 40.359375 0 L 40.359375 -416.09375 L 163.65625 -416.09375 L 163.65625 -371.328125 C 177.84375 -392.367188 193.617188 -406.554688 210.984375 -413.890625 C 228.347656 -421.234375 248.039062 -424.90625 270.0625 -424.90625 L 288.40625 -424.90625 L 288.40625 -307.484375 L 264.921875 -307.484375 C 247.796875 -307.484375 233.609375 -305.523438 222.359375 -301.609375 C 211.109375 -297.703125 201.8125 -292.320312 194.46875 -285.46875 C 183.707031 -275.195312 175.878906 -261.375 170.984375 -244 C 166.097656 -226.632812 163.65625 -203.765625 163.65625 -175.390625 Z M 163.65625 0 "/></g></g></g><g fill="#9400d3" fill-opacity="1"><g transform="translate(2678.882263, 1035.599948)"><g><path d="M 163.65625 0 L 40.359375 0 L 40.359375 -416.09375 L 163.65625 -416.09375 L 163.65625 -371.328125 C 177.84375 -392.367188 193.617188 -406.554688 210.984375 -413.890625 C 228.347656 -421.234375 248.039062 -424.90625 270.0625 -424.90625 C 297.457031 -424.90625 320.082031 -421.601562 337.9375 -415 C 355.800781 -408.394531 369.988281 -399.585938 380.5 -388.578125 C 391.019531 -377.566406 398.972656 -365.703125 404.359375 -352.984375 C 412.671875 -334.878906 417.4375 -316.773438 418.65625 -298.671875 C 419.882812 -280.578125 420.5 -258.566406 420.5 -232.640625 L 420.5 0 L 297.21875 0 L 297.21875 -234.09375 C 297.21875 -254.644531 295.867188 -270.910156 293.171875 -282.890625 C 290.484375 -294.878906 285.957031 -304.054688 279.59375 -310.421875 C 269.8125 -320.691406 254.644531 -325.828125 234.09375 -325.828125 C 221.375 -325.828125 210.367188 -324.238281 201.078125 -321.0625 C 191.785156 -317.882812 184.445312 -312.378906 179.0625 -304.546875 C 174.164062 -297.703125 170.375 -288.773438 167.6875 -277.765625 C 165 -266.753906 163.65625 -252.195312 163.65625 -234.09375 Z M 163.65625 0 "/></g></g></g><g fill="#9400d3" fill-opacity="1"><g transform="translate(3136.761895, 1035.599948)"><g><path d="M 102 -444.71875 C 82.925781 -444.71875 66.539062 -450.34375 52.84375 -461.59375 C 39.144531 -472.84375 32.296875 -488.253906 32.296875 -507.828125 C 32.296875 -527.398438 39.144531 -542.929688 52.84375 -554.421875 C 66.539062 -565.921875 82.925781 -571.671875 102 -571.671875 C 121.082031 -571.671875 137.472656 -565.921875 151.171875 -554.421875 C 164.867188 -542.929688 171.71875 -527.398438 171.71875 -507.828125 C 171.71875 -488.253906 164.867188 -472.84375 151.171875 -461.59375 C 137.472656 -450.34375 121.082031 -444.71875 102 -444.71875 Z M 163.65625 0 L 40.359375 0 L 40.359375 -416.09375 L 163.65625 -416.09375 Z M 163.65625 0 "/></g></g></g><g fill="#9400d3" fill-opacity="1"><g transform="translate(3340.753132, 1035.599948)"><g><path d="M 239.96875 8.8125 C 196.914062 8.8125 159.125 -0.238281 126.59375 -18.34375 C 94.0625 -36.445312 68.742188 -62.007812 50.640625 -95.03125 C 32.535156 -128.050781 23.484375 -166.582031 23.484375 -210.625 C 23.484375 -253.1875 32.410156 -290.488281 50.265625 -322.53125 C 68.128906 -354.570312 93.328125 -379.644531 125.859375 -397.75 C 158.390625 -415.851562 196.425781 -424.90625 239.96875 -424.90625 C 292.320312 -424.90625 336.722656 -411.570312 373.171875 -384.90625 C 409.617188 -358.238281 433.222656 -322.40625 443.984375 -277.40625 L 308.953125 -277.40625 C 298.191406 -310.664062 275.195312 -327.296875 239.96875 -327.296875 C 212.570312 -327.296875 190.800781 -316.898438 174.65625 -296.109375 C 158.507812 -275.316406 150.4375 -246.820312 150.4375 -210.625 C 150.4375 -172.945312 158.507812 -143.34375 174.65625 -121.8125 C 190.800781 -100.289062 212.570312 -89.53125 239.96875 -89.53125 C 261.007812 -89.53125 277.03125 -94.300781 288.03125 -103.84375 C 299.039062 -113.382812 306.503906 -126.71875 310.421875 -143.84375 L 444.71875 -143.84375 C 434.445312 -95.894531 410.84375 -58.460938 373.90625 -31.546875 C 336.96875 -4.640625 292.320312 8.8125 239.96875 8.8125 Z M 239.96875 8.8125 "/></g></g></g><g fill="#9400d3" fill-opacity="1"><g transform="translate(3805.236918, 1035.599948)"><g><path d="M 240.703125 8.8125 C 196.671875 8.8125 158.390625 -0.484375 125.859375 -19.078125 C 93.328125 -37.671875 68.128906 -62.988281 50.265625 -95.03125 C 32.410156 -127.082031 23.484375 -163.65625 23.484375 -204.75 C 23.484375 -231.164062 27.519531 -257.335938 35.59375 -283.265625 C 43.664062 -309.203125 56.382812 -332.929688 73.75 -354.453125 C 91.125 -375.984375 113.265625 -393.109375 140.171875 -405.828125 C 167.078125 -418.546875 199.363281 -424.90625 237.03125 -424.90625 C 264.425781 -424.90625 290.96875 -420.867188 316.65625 -412.796875 C 342.34375 -404.722656 365.335938 -391.878906 385.640625 -374.265625 C 405.941406 -356.648438 422.085938 -333.773438 434.078125 -305.640625 C 446.066406 -277.515625 452.0625 -243.394531 452.0625 -203.28125 L 452.0625 -182 L 152.640625 -182 C 156.066406 -159.488281 163.160156 -141.628906 173.921875 -128.421875 C 182.734375 -117.660156 193.375 -109.710938 205.84375 -104.578125 C 218.320312 -99.441406 232.144531 -96.875 247.3125 -96.875 C 265.90625 -96.875 281.679688 -101.519531 294.640625 -110.8125 C 307.609375 -120.101562 316.539062 -131.113281 321.4375 -143.84375 L 445.453125 -143.84375 C 437.617188 -116.4375 425.140625 -91.113281 408.015625 -67.875 C 390.898438 -44.644531 368.519531 -26.054688 340.875 -12.109375 C 313.238281 1.835938 279.847656 8.8125 240.703125 8.8125 Z M 156.3125 -269.328125 L 327.296875 -269.328125 C 326.316406 -274.222656 324.484375 -280.09375 321.796875 -286.9375 C 319.109375 -293.789062 314.335938 -300.394531 307.484375 -306.75 C 298.679688 -315.5625 288.648438 -321.800781 277.390625 -325.46875 C 266.140625 -329.132812 254.15625 -330.96875 241.4375 -330.96875 C 229.207031 -330.96875 217.34375 -329.132812 205.84375 -325.46875 C 194.351562 -321.800781 184.203125 -315.5625 175.390625 -306.75 C 168.546875 -299.90625 163.898438 -293.179688 161.453125 -286.578125 C 159.003906 -279.972656 157.289062 -274.222656 156.3125 -269.328125 Z M 156.3125 -269.328125 "/></g></g></g><g clip-path="url(#2e080fc490)"><g clip-path="url(#c930a37df3)"><path fill="#ff9800" d="M 1190.394531 128.375 L 1190.394531 1369.839844 L 155.164062 1369.839844 L 155.164062 128.375 Z M 1190.394531 128.375 " fill-opacity="1" fill-rule="nonzero"/></g></g><g clip-path="url(#3159f1e6f6)"><g clip-path="url(#03301c0aaf)"><path fill="#ffffff" d="M 580.300781 462.777344 L 580.300781 1036.398438 L 101.972656 1036.398438 L 101.972656 462.777344 Z M 580.300781 462.777344 " fill-opacity="1" fill-rule="nonzero"/></g></g></svg>