<svg xmlns="http://www.w3.org/2000/svg" xmlns:xlink="http://www.w3.org/1999/xlink" width="500" zoomAndPan="magnify" viewBox="0 0 375 112.499997" height="150" preserveAspectRatio="xMidYMid meet" version="1.0"><defs><g/><clipPath id="8eb7dfa7bf"><path d="M 0.828125 0 L 374.167969 0 L 374.167969 112.003906 L 0.828125 112.003906 Z M 0.828125 0 " clip-rule="nonzero"/></clipPath><clipPath id="48d5eb04c3"><path d="M 13.695312 6.777344 L 96.5625 6.777344 L 96.5625 105.414062 L 13.695312 105.414062 Z M 13.695312 6.777344 " clip-rule="nonzero"/></clipPath><clipPath id="bf1a85c991"><path d="M 94.816406 58.863281 L 18.460938 104.714844 C 17.488281 105.296875 16.277344 105.3125 15.289062 104.753906 C 14.304688 104.195312 13.695312 103.152344 13.695312 102.015625 L 13.695312 9.988281 C 13.695312 8.855469 14.304688 7.808594 15.289062 7.25 C 16.277344 6.691406 17.488281 6.707031 18.460938 7.292969 L 94.816406 53.140625 C 95.820312 53.746094 96.4375 54.832031 96.4375 56.003906 C 96.4375 57.175781 95.820312 58.261719 94.816406 58.863281 Z M 94.816406 58.863281 " clip-rule="nonzero"/></clipPath><clipPath id="6092908a37"><path d="M 9.28125 34.5 L 45.867188 34.5 L 45.867188 77.441406 L 9.28125 77.441406 Z M 9.28125 34.5 " clip-rule="nonzero"/></clipPath><clipPath id="cd1d1a5144"><path d="M 44.199219 58.867188 L 14.046875 76.972656 C 13.074219 77.554688 11.863281 77.570312 10.878906 77.011719 C 9.890625 76.453125 9.28125 75.410156 9.28125 74.273438 L 9.28125 37.734375 C 9.28125 36.597656 9.890625 35.554688 10.878906 34.996094 C 11.863281 34.4375 13.074219 34.453125 14.046875 35.035156 L 44.199219 53.144531 C 45.207031 53.746094 45.820312 54.832031 45.820312 56.003906 C 45.820312 57.175781 45.207031 58.261719 44.199219 58.867188 Z M 44.199219 58.867188 " clip-rule="nonzero"/></clipPath></defs><g clip-path="url(#8eb7dfa7bf)"><path fill="#ffffff" d="M 0.828125 0 L 374.171875 0 L 374.171875 112.003906 L 0.828125 112.003906 Z M 0.828125 0 " fill-opacity="1" fill-rule="nonzero"/><path fill="#ffffff" d="M 0.828125 0 L 374.171875 0 L 374.171875 112.003906 L 0.828125 112.003906 Z M 0.828125 0 " fill-opacity="1" fill-rule="nonzero"/></g><g fill="#9400d3" fill-opacity="1"><g transform="translate(102.726442, 79.695797)"><g><path d="M 17.96875 0 L 11.078125 0 C 8.566406 0 6.617188 -0.597656 5.234375 -1.796875 C 3.859375 -2.992188 3.171875 -4.6875 3.171875 -6.875 L 3.171875 -46.453125 L 13.390625 -46.453125 L 13.390625 -10.40625 C 13.390625 -9.476562 13.625 -8.890625 14.09375 -8.640625 C 14.5625 -8.398438 15 -8.28125 15.40625 -8.28125 L 17.96875 -8.28125 Z M 17.96875 0 "/></g></g></g><g fill="#9400d3" fill-opacity="1"><g transform="translate(122.085617, 79.695797)"><g><path d="M 19.96875 0.734375 C 16.3125 0.734375 13.132812 -0.0351562 10.4375 -1.578125 C 7.738281 -3.117188 5.648438 -5.21875 4.171875 -7.875 C 2.691406 -10.539062 1.953125 -13.578125 1.953125 -16.984375 C 1.953125 -19.179688 2.285156 -21.351562 2.953125 -23.5 C 3.617188 -25.65625 4.671875 -27.625 6.109375 -29.40625 C 7.554688 -31.195312 9.394531 -32.617188 11.625 -33.671875 C 13.863281 -34.722656 16.546875 -35.25 19.671875 -35.25 C 21.941406 -35.25 24.140625 -34.914062 26.265625 -34.25 C 28.398438 -33.582031 30.3125 -32.515625 32 -31.046875 C 33.6875 -29.585938 35.023438 -27.691406 36.015625 -25.359375 C 37.015625 -23.023438 37.515625 -20.191406 37.515625 -16.859375 L 37.515625 -15.09375 L 12.671875 -15.09375 C 12.953125 -13.226562 13.539062 -11.75 14.4375 -10.65625 C 15.164062 -9.757812 16.046875 -9.097656 17.078125 -8.671875 C 18.109375 -8.242188 19.253906 -8.03125 20.515625 -8.03125 C 22.054688 -8.03125 23.363281 -8.414062 24.4375 -9.1875 C 25.519531 -9.957031 26.265625 -10.875 26.671875 -11.9375 L 36.953125 -11.9375 C 36.304688 -9.664062 35.269531 -7.5625 33.84375 -5.625 C 32.425781 -3.695312 30.570312 -2.15625 28.28125 -1 C 25.988281 0.15625 23.21875 0.734375 19.96875 0.734375 Z M 12.96875 -22.34375 L 27.15625 -22.34375 C 27.070312 -22.75 26.914062 -23.234375 26.6875 -23.796875 C 26.46875 -24.367188 26.078125 -24.921875 25.515625 -25.453125 C 24.785156 -26.179688 23.953125 -26.695312 23.015625 -27 C 22.078125 -27.3125 21.082031 -27.46875 20.03125 -27.46875 C 19.019531 -27.46875 18.035156 -27.3125 17.078125 -27 C 16.128906 -26.695312 15.285156 -26.179688 14.546875 -25.453125 C 13.984375 -24.878906 13.597656 -24.316406 13.390625 -23.765625 C 13.191406 -23.222656 13.050781 -22.75 12.96875 -22.34375 Z M 12.96875 -22.34375 "/></g></g></g><g fill="#9400d3" fill-opacity="1"><g transform="translate(161.534492, 79.695797)"><g><path d="M 13.328125 0.734375 C 11.265625 0.734375 9.378906 0.347656 7.671875 -0.421875 C 5.960938 -1.191406 4.59375 -2.347656 3.5625 -3.890625 C 2.53125 -5.429688 2.015625 -7.363281 2.015625 -9.6875 C 2.015625 -11.75 2.414062 -13.453125 3.21875 -14.796875 C 4.03125 -16.140625 5.066406 -17.21875 6.328125 -18.03125 C 7.546875 -18.832031 8.882812 -19.425781 10.34375 -19.8125 C 11.8125 -20.195312 13.191406 -20.515625 14.484375 -20.765625 L 23.4375 -22.34375 C 23.320312 -24.09375 22.859375 -25.429688 22.046875 -26.359375 C 21.273438 -27.171875 20.117188 -27.578125 18.578125 -27.578125 C 17.398438 -27.578125 16.3125 -27.179688 15.3125 -26.390625 C 14.320312 -25.597656 13.703125 -24.472656 13.453125 -23.015625 L 3.28125 -23.015625 C 3.726562 -25.898438 4.722656 -28.242188 6.265625 -30.046875 C 7.804688 -31.859375 9.671875 -33.175781 11.859375 -34 C 14.054688 -34.832031 16.3125 -35.25 18.625 -35.25 C 20.65625 -35.25 22.601562 -34.972656 24.46875 -34.421875 C 26.34375 -33.878906 27.96875 -33.019531 29.34375 -31.84375 C 30.769531 -30.625 31.773438 -29.222656 32.359375 -27.640625 C 32.953125 -26.054688 33.304688 -24.320312 33.421875 -22.4375 C 33.546875 -20.550781 33.609375 -18.53125 33.609375 -16.375 L 33.609375 0 L 23.375 0 L 23.375 -4.203125 C 22.8125 -2.859375 22.003906 -1.820312 20.953125 -1.09375 C 19.929688 -0.40625 18.757812 0.0664062 17.4375 0.328125 C 16.125 0.597656 14.753906 0.734375 13.328125 0.734375 Z M 16.3125 -7 C 17.53125 -7 18.769531 -7.285156 20.03125 -7.859375 C 21.457031 -8.503906 22.398438 -9.40625 22.859375 -10.5625 C 23.328125 -11.71875 23.582031 -13.226562 23.625 -15.09375 L 17.359375 -13.890625 C 16.222656 -13.679688 15.347656 -13.453125 14.734375 -13.203125 C 14.128906 -12.960938 13.601562 -12.640625 13.15625 -12.234375 C 12.863281 -11.953125 12.632812 -11.640625 12.46875 -11.296875 C 12.3125 -10.953125 12.234375 -10.535156 12.234375 -10.046875 C 12.234375 -8.953125 12.640625 -8.171875 13.453125 -7.703125 C 14.265625 -7.234375 15.21875 -7 16.3125 -7 Z M 16.3125 -7 "/></g></g></g><g fill="#9400d3" fill-opacity="1"><g transform="translate(198.122107, 79.695797)"><g><path d="M 13.578125 0 L 3.34375 0 L 3.34375 -34.53125 L 13.578125 -34.53125 L 13.578125 -30.8125 C 14.753906 -32.550781 16.0625 -33.722656 17.5 -34.328125 C 18.945312 -34.941406 20.582031 -35.25 22.40625 -35.25 L 23.9375 -35.25 L 23.9375 -25.515625 L 21.984375 -25.515625 C 20.554688 -25.515625 19.375 -25.347656 18.4375 -25.015625 C 17.507812 -24.691406 16.742188 -24.25 16.140625 -23.6875 C 15.242188 -22.832031 14.59375 -21.679688 14.1875 -20.234375 C 13.78125 -18.796875 13.578125 -16.898438 13.578125 -14.546875 Z M 13.578125 0 "/></g></g></g><g fill="#9400d3" fill-opacity="1"><g transform="translate(223.082042, 79.695797)"><g><path d="M 13.578125 0 L 3.34375 0 L 3.34375 -34.53125 L 13.578125 -34.53125 L 13.578125 -30.8125 C 14.753906 -32.550781 16.0625 -33.722656 17.5 -34.328125 C 18.945312 -34.941406 20.582031 -35.25 22.40625 -35.25 C 24.675781 -35.25 26.550781 -34.972656 28.03125 -34.421875 C 29.519531 -33.878906 30.695312 -33.148438 31.5625 -32.234375 C 32.4375 -31.328125 33.097656 -30.34375 33.546875 -29.28125 C 34.234375 -27.78125 34.628906 -26.28125 34.734375 -24.78125 C 34.835938 -23.28125 34.890625 -21.453125 34.890625 -19.296875 L 34.890625 0 L 24.65625 0 L 24.65625 -19.421875 C 24.65625 -21.128906 24.539062 -22.476562 24.3125 -23.46875 C 24.09375 -24.46875 23.722656 -25.226562 23.203125 -25.75 C 22.390625 -26.601562 21.128906 -27.03125 19.421875 -27.03125 C 18.367188 -27.03125 17.457031 -26.898438 16.6875 -26.640625 C 15.914062 -26.378906 15.304688 -25.921875 14.859375 -25.265625 C 14.453125 -24.703125 14.132812 -23.960938 13.90625 -23.046875 C 13.6875 -22.128906 13.578125 -20.921875 13.578125 -19.421875 Z M 13.578125 0 "/></g></g></g><g fill="#9400d3" fill-opacity="1"><g transform="translate(261.069843, 79.695797)"><g><path d="M 8.46875 -36.90625 C 6.882812 -36.90625 5.519531 -37.367188 4.375 -38.296875 C 3.238281 -39.234375 2.671875 -40.515625 2.671875 -42.140625 C 2.671875 -43.765625 3.238281 -45.050781 4.375 -46 C 5.519531 -46.957031 6.882812 -47.4375 8.46875 -47.4375 C 10.050781 -47.4375 11.410156 -46.957031 12.546875 -46 C 13.679688 -45.050781 14.25 -43.765625 14.25 -42.140625 C 14.25 -40.515625 13.679688 -39.234375 12.546875 -38.296875 C 11.410156 -37.367188 10.050781 -36.90625 8.46875 -36.90625 Z M 13.578125 0 L 3.34375 0 L 3.34375 -34.53125 L 13.578125 -34.53125 Z M 13.578125 0 "/></g></g></g><g fill="#9400d3" fill-opacity="1"><g transform="translate(277.993895, 79.695797)"><g><path d="M 19.90625 0.734375 C 16.332031 0.734375 13.195312 -0.015625 10.5 -1.515625 C 7.800781 -3.023438 5.703125 -5.148438 4.203125 -7.890625 C 2.703125 -10.628906 1.953125 -13.820312 1.953125 -17.46875 C 1.953125 -21 2.691406 -24.09375 4.171875 -26.75 C 5.648438 -29.414062 7.738281 -31.5 10.4375 -33 C 13.132812 -34.5 16.289062 -35.25 19.90625 -35.25 C 24.25 -35.25 27.929688 -34.144531 30.953125 -31.9375 C 33.984375 -29.726562 35.945312 -26.753906 36.84375 -23.015625 L 25.640625 -23.015625 C 24.742188 -25.773438 22.832031 -27.15625 19.90625 -27.15625 C 17.632812 -27.15625 15.828125 -26.289062 14.484375 -24.5625 C 13.148438 -22.84375 12.484375 -20.476562 12.484375 -17.46875 C 12.484375 -14.34375 13.148438 -11.882812 14.484375 -10.09375 C 15.828125 -8.3125 17.632812 -7.421875 19.90625 -7.421875 C 21.65625 -7.421875 22.984375 -7.816406 23.890625 -8.609375 C 24.804688 -9.398438 25.425781 -10.507812 25.75 -11.9375 L 36.90625 -11.9375 C 36.050781 -7.957031 34.085938 -4.847656 31.015625 -2.609375 C 27.953125 -0.378906 24.25 0.734375 19.90625 0.734375 Z M 19.90625 0.734375 "/></g></g></g><g fill="#9400d3" fill-opacity="1"><g transform="translate(316.529608, 79.695797)"><g><path d="M 19.96875 0.734375 C 16.3125 0.734375 13.132812 -0.0351562 10.4375 -1.578125 C 7.738281 -3.117188 5.648438 -5.21875 4.171875 -7.875 C 2.691406 -10.539062 1.953125 -13.578125 1.953125 -16.984375 C 1.953125 -19.179688 2.285156 -21.351562 2.953125 -23.5 C 3.617188 -25.65625 4.671875 -27.625 6.109375 -29.40625 C 7.554688 -31.195312 9.394531 -32.617188 11.625 -33.671875 C 13.863281 -34.722656 16.546875 -35.25 19.671875 -35.25 C 21.941406 -35.25 24.140625 -34.914062 26.265625 -34.25 C 28.398438 -33.582031 30.3125 -32.515625 32 -31.046875 C 33.6875 -29.585938 35.023438 -27.691406 36.015625 -25.359375 C 37.015625 -23.023438 37.515625 -20.191406 37.515625 -16.859375 L 37.515625 -15.09375 L 12.671875 -15.09375 C 12.953125 -13.226562 13.539062 -11.75 14.4375 -10.65625 C 15.164062 -9.757812 16.046875 -9.097656 17.078125 -8.671875 C 18.109375 -8.242188 19.253906 -8.03125 20.515625 -8.03125 C 22.054688 -8.03125 23.363281 -8.414062 24.4375 -9.1875 C 25.519531 -9.957031 26.265625 -10.875 26.671875 -11.9375 L 36.953125 -11.9375 C 36.304688 -9.664062 35.269531 -7.5625 33.84375 -5.625 C 32.425781 -3.695312 30.570312 -2.15625 28.28125 -1 C 25.988281 0.15625 23.21875 0.734375 19.96875 0.734375 Z M 12.96875 -22.34375 L 27.15625 -22.34375 C 27.070312 -22.75 26.914062 -23.234375 26.6875 -23.796875 C 26.46875 -24.367188 26.078125 -24.921875 25.515625 -25.453125 C 24.785156 -26.179688 23.953125 -26.695312 23.015625 -27 C 22.078125 -27.3125 21.082031 -27.46875 20.03125 -27.46875 C 19.019531 -27.46875 18.035156 -27.3125 17.078125 -27 C 16.128906 -26.695312 15.285156 -26.179688 14.546875 -25.453125 C 13.984375 -24.878906 13.597656 -24.316406 13.390625 -23.765625 C 13.191406 -23.222656 13.050781 -22.75 12.96875 -22.34375 Z M 12.96875 -22.34375 "/></g></g></g><g clip-path="url(#48d5eb04c3)"><g clip-path="url(#bf1a85c991)"><path fill="#ff9800" d="M 99.582031 4.429688 L 99.582031 107.425781 L 13.695312 107.425781 L 13.695312 4.429688 Z M 99.582031 4.429688 " fill-opacity="1" fill-rule="nonzero"/></g></g><g clip-path="url(#6092908a37)"><g clip-path="url(#cd1d1a5144)"><path fill="#ffffff" d="M 48.964844 32.175781 L 48.964844 79.765625 L 9.28125 79.765625 L 9.28125 32.175781 Z M 48.964844 32.175781 " fill-opacity="1" fill-rule="nonzero"/></g></g></svg>