<svg xmlns="http://www.w3.org/2000/svg" xmlns:xlink="http://www.w3.org/1999/xlink" width="500" zoomAndPan="magnify" viewBox="0 0 375 374.999991" height="500" preserveAspectRatio="xMidYMid meet" version="1.0"><defs><g/><clipPath id="afda5ad65e"><path d="M 12.460938 99.535156 L 83.753906 99.535156 L 83.753906 183 L 12.460938 183 Z M 12.460938 99.535156 " clip-rule="nonzero"/></clipPath><clipPath id="92f83ae94b"><path d="M 80.46875 146.667969 L 21.464844 182.097656 C 19.628906 183.199219 17.339844 183.230469 15.476562 182.175781 C 13.613281 181.121094 12.460938 179.144531 12.460938 177.003906 L 12.460938 105.523438 C 12.460938 103.378906 13.613281 101.40625 15.476562 100.351562 C 17.339844 99.296875 19.628906 99.324219 21.464844 100.425781 L 80.46875 135.855469 C 82.363281 136.996094 83.527344 139.046875 83.527344 141.261719 C 83.527344 143.476562 82.363281 145.527344 80.46875 146.667969 Z M 80.46875 146.667969 " clip-rule="nonzero"/></clipPath><clipPath id="bfd7ff04e4"><path d="M 0 117.53125 L 36.613281 117.53125 L 36.613281 164.90625 L 0 164.90625 Z M 0 117.53125 " clip-rule="nonzero"/></clipPath><clipPath id="f9f679a63b"><path d="M 33.464844 146.664062 L 4.640625 163.972656 C 2.808594 165.074219 0.519531 165.101562 -1.34375 164.046875 C -3.207031 162.992188 -4.359375 161.015625 -4.359375 158.875 L -4.359375 123.640625 C -4.359375 121.5 -3.207031 119.523438 -1.34375 118.46875 C 0.519531 117.414062 2.808594 117.445312 4.640625 118.546875 L 33.464844 135.855469 C 35.363281 136.992188 36.523438 139.046875 36.523438 141.257812 C 36.523438 143.472656 35.363281 145.523438 33.464844 146.664062 Z M 33.464844 146.664062 " clip-rule="nonzero"/></clipPath></defs><rect x="-37.5" width="450" fill="#ffffff" y="-37.499999" height="449.999989" fill-opacity="1"/><rect x="-37.5" width="450" fill="#ffffff" y="-37.499999" height="449.999989" fill-opacity="1"/><g fill="#9400d3" fill-opacity="1"><g transform="translate(89.474106, 166.759698)"><g><path d="M 20.0625 0 L 12.375 0 C 9.5625 0 7.382812 -0.664062 5.84375 -2 C 4.300781 -3.34375 3.53125 -5.238281 3.53125 -7.6875 L 3.53125 -51.890625 L 14.953125 -51.890625 L 14.953125 -11.625 C 14.953125 -10.582031 15.210938 -9.925781 15.734375 -9.65625 C 16.265625 -9.382812 16.753906 -9.25 17.203125 -9.25 L 20.0625 -9.25 Z M 20.0625 0 "/></g></g></g><g fill="#9400d3" fill-opacity="1"><g transform="translate(111.095633, 166.759698)"><g><path d="M 22.296875 0.8125 C 18.222656 0.8125 14.675781 -0.046875 11.65625 -1.765625 C 8.644531 -3.492188 6.3125 -5.84375 4.65625 -8.8125 C 3 -11.78125 2.171875 -15.164062 2.171875 -18.96875 C 2.171875 -21.414062 2.546875 -23.84375 3.296875 -26.25 C 4.046875 -28.65625 5.222656 -30.851562 6.828125 -32.84375 C 8.441406 -34.84375 10.492188 -36.429688 12.984375 -37.609375 C 15.484375 -38.785156 18.476562 -39.375 21.96875 -39.375 C 24.5 -39.375 26.953125 -39 29.328125 -38.25 C 31.710938 -37.5 33.847656 -36.304688 35.734375 -34.671875 C 37.617188 -33.046875 39.113281 -30.925781 40.21875 -28.3125 C 41.332031 -25.707031 41.890625 -22.550781 41.890625 -18.84375 L 41.890625 -16.859375 L 14.140625 -16.859375 C 14.460938 -14.773438 15.117188 -13.125 16.109375 -11.90625 C 16.929688 -10.90625 17.921875 -10.164062 19.078125 -9.6875 C 20.234375 -9.207031 21.515625 -8.96875 22.921875 -8.96875 C 24.640625 -8.96875 26.097656 -9.398438 27.296875 -10.265625 C 28.503906 -11.128906 29.332031 -12.148438 29.78125 -13.328125 L 41.28125 -13.328125 C 40.550781 -10.785156 39.390625 -8.4375 37.796875 -6.28125 C 36.210938 -4.132812 34.140625 -2.414062 31.578125 -1.125 C 29.023438 0.164062 25.929688 0.8125 22.296875 0.8125 Z M 14.484375 -24.953125 L 30.328125 -24.953125 C 30.234375 -25.410156 30.0625 -25.957031 29.8125 -26.59375 C 29.5625 -27.226562 29.117188 -27.835938 28.484375 -28.421875 C 27.671875 -29.234375 26.742188 -29.8125 25.703125 -30.15625 C 24.660156 -30.5 23.550781 -30.671875 22.375 -30.671875 C 21.238281 -30.671875 20.132812 -30.5 19.0625 -30.15625 C 18 -29.8125 17.0625 -29.234375 16.25 -28.421875 C 15.613281 -27.785156 15.179688 -27.160156 14.953125 -26.546875 C 14.734375 -25.941406 14.578125 -25.410156 14.484375 -24.953125 Z M 14.484375 -24.953125 "/></g></g></g><g fill="#9400d3" fill-opacity="1"><g transform="translate(155.154583, 166.759698)"><g><path d="M 14.890625 0.8125 C 12.578125 0.8125 10.46875 0.382812 8.5625 -0.46875 C 6.664062 -1.332031 5.140625 -2.625 3.984375 -4.34375 C 2.828125 -6.070312 2.25 -8.226562 2.25 -10.8125 C 2.25 -13.125 2.703125 -15.023438 3.609375 -16.515625 C 4.515625 -18.015625 5.671875 -19.21875 7.078125 -20.125 C 8.429688 -21.03125 9.925781 -21.695312 11.5625 -22.125 C 13.195312 -22.5625 14.738281 -22.914062 16.1875 -23.1875 L 26.1875 -24.953125 C 26.039062 -26.898438 25.515625 -28.394531 24.609375 -29.4375 C 23.753906 -30.34375 22.460938 -30.796875 20.734375 -30.796875 C 19.421875 -30.796875 18.207031 -30.351562 17.09375 -29.46875 C 15.988281 -28.59375 15.300781 -27.335938 15.03125 -25.703125 L 3.671875 -25.703125 C 4.171875 -28.921875 5.28125 -31.535156 7 -33.546875 C 8.726562 -35.566406 10.816406 -37.039062 13.265625 -37.96875 C 15.710938 -38.90625 18.226562 -39.375 20.8125 -39.375 C 23.070312 -39.375 25.242188 -39.066406 27.328125 -38.453125 C 29.421875 -37.835938 31.238281 -36.875 32.78125 -35.5625 C 34.363281 -34.207031 35.484375 -32.644531 36.140625 -30.875 C 36.796875 -29.101562 37.191406 -27.160156 37.328125 -25.046875 C 37.460938 -22.941406 37.53125 -20.691406 37.53125 -18.296875 L 37.53125 0 L 26.109375 0 L 26.109375 -4.6875 C 25.472656 -3.195312 24.566406 -2.039062 23.390625 -1.21875 C 22.253906 -0.445312 20.945312 0.0820312 19.46875 0.375 C 18 0.664062 16.472656 0.8125 14.890625 0.8125 Z M 18.21875 -7.8125 C 19.582031 -7.8125 20.96875 -8.128906 22.375 -8.765625 C 23.957031 -9.492188 25.007812 -10.503906 25.53125 -11.796875 C 26.050781 -13.085938 26.335938 -14.773438 26.390625 -16.859375 L 19.375 -15.5 C 18.101562 -15.269531 17.128906 -15.019531 16.453125 -14.75 C 15.773438 -14.476562 15.1875 -14.117188 14.6875 -13.671875 C 14.375 -13.347656 14.125 -12.992188 13.9375 -12.609375 C 13.757812 -12.222656 13.671875 -11.757812 13.671875 -11.21875 C 13.671875 -10 14.125 -9.125 15.03125 -8.59375 C 15.9375 -8.070312 17 -7.8125 18.21875 -7.8125 Z M 18.21875 -7.8125 "/></g></g></g><g fill="#9400d3" fill-opacity="1"><g transform="translate(196.017896, 166.759698)"><g><path d="M 15.15625 0 L 3.734375 0 L 3.734375 -38.5625 L 15.15625 -38.5625 L 15.15625 -34.40625 C 16.476562 -36.351562 17.941406 -37.664062 19.546875 -38.34375 C 21.160156 -39.03125 22.988281 -39.375 25.03125 -39.375 L 26.71875 -39.375 L 26.71875 -28.484375 L 24.546875 -28.484375 C 22.960938 -28.484375 21.648438 -28.300781 20.609375 -27.9375 C 19.566406 -27.582031 18.703125 -27.085938 18.015625 -26.453125 C 17.023438 -25.503906 16.300781 -24.222656 15.84375 -22.609375 C 15.382812 -21.003906 15.15625 -18.882812 15.15625 -16.25 Z M 15.15625 0 "/></g></g></g><g fill="#9400d3" fill-opacity="1"><g transform="translate(223.894706, 166.759698)"><g><path d="M 15.15625 0 L 3.734375 0 L 3.734375 -38.5625 L 15.15625 -38.5625 L 15.15625 -34.40625 C 16.476562 -36.351562 17.941406 -37.664062 19.546875 -38.34375 C 21.160156 -39.03125 22.988281 -39.375 25.03125 -39.375 C 27.5625 -39.375 29.65625 -39.066406 31.3125 -38.453125 C 32.96875 -37.835938 34.28125 -37.019531 35.25 -36 C 36.226562 -34.976562 36.96875 -33.878906 37.46875 -32.703125 C 38.238281 -31.023438 38.679688 -29.347656 38.796875 -27.671875 C 38.910156 -25.992188 38.96875 -23.957031 38.96875 -21.5625 L 38.96875 0 L 27.546875 0 L 27.546875 -21.6875 C 27.546875 -23.59375 27.421875 -25.097656 27.171875 -26.203125 C 26.921875 -27.316406 26.5 -28.171875 25.90625 -28.765625 C 25 -29.710938 23.59375 -30.1875 21.6875 -30.1875 C 20.507812 -30.1875 19.488281 -30.039062 18.625 -29.75 C 17.769531 -29.457031 17.09375 -28.945312 16.59375 -28.21875 C 16.132812 -27.582031 15.78125 -26.753906 15.53125 -25.734375 C 15.28125 -24.710938 15.15625 -23.363281 15.15625 -21.6875 Z M 15.15625 0 "/></g></g></g><g fill="#9400d3" fill-opacity="1"><g transform="translate(266.321843, 166.759698)"><g><path d="M 9.453125 -41.203125 C 7.679688 -41.203125 6.160156 -41.722656 4.890625 -42.765625 C 3.617188 -43.816406 2.984375 -45.25 2.984375 -47.0625 C 2.984375 -48.875 3.617188 -50.3125 4.890625 -51.375 C 6.160156 -52.4375 7.679688 -52.96875 9.453125 -52.96875 C 11.222656 -52.96875 12.738281 -52.4375 14 -51.375 C 15.269531 -50.3125 15.90625 -48.875 15.90625 -47.0625 C 15.90625 -45.25 15.269531 -43.816406 14 -42.765625 C 12.738281 -41.722656 11.222656 -41.203125 9.453125 -41.203125 Z M 15.15625 0 L 3.734375 0 L 3.734375 -38.5625 L 15.15625 -38.5625 Z M 15.15625 0 "/></g></g></g><g fill="#9400d3" fill-opacity="1"><g transform="translate(285.223682, 166.759698)"><g><path d="M 22.234375 0.8125 C 18.242188 0.8125 14.738281 -0.0234375 11.71875 -1.703125 C 8.707031 -3.378906 6.363281 -5.742188 4.6875 -8.796875 C 3.007812 -11.859375 2.171875 -15.429688 2.171875 -19.515625 C 2.171875 -23.460938 3 -26.921875 4.65625 -29.890625 C 6.3125 -32.859375 8.644531 -35.179688 11.65625 -36.859375 C 14.675781 -38.535156 18.203125 -39.375 22.234375 -39.375 C 27.085938 -39.375 31.203125 -38.132812 34.578125 -35.65625 C 37.953125 -33.1875 40.140625 -29.867188 41.140625 -25.703125 L 28.625 -25.703125 C 27.625 -28.785156 25.492188 -30.328125 22.234375 -30.328125 C 19.691406 -30.328125 17.671875 -29.363281 16.171875 -27.4375 C 14.679688 -25.507812 13.9375 -22.867188 13.9375 -19.515625 C 13.9375 -16.023438 14.679688 -13.28125 16.171875 -11.28125 C 17.671875 -9.289062 19.691406 -8.296875 22.234375 -8.296875 C 24.179688 -8.296875 25.664062 -8.738281 26.6875 -9.625 C 27.707031 -10.507812 28.398438 -11.742188 28.765625 -13.328125 L 41.203125 -13.328125 C 40.253906 -8.878906 38.066406 -5.410156 34.640625 -2.921875 C 31.222656 -0.429688 27.085938 0.8125 22.234375 0.8125 Z M 22.234375 0.8125 "/></g></g></g><g fill="#9400d3" fill-opacity="1"><g transform="translate(328.262757, 166.759698)"><g><path d="M 22.296875 0.8125 C 18.222656 0.8125 14.675781 -0.046875 11.65625 -1.765625 C 8.644531 -3.492188 6.3125 -5.84375 4.65625 -8.8125 C 3 -11.78125 2.171875 -15.164062 2.171875 -18.96875 C 2.171875 -21.414062 2.546875 -23.84375 3.296875 -26.25 C 4.046875 -28.65625 5.222656 -30.851562 6.828125 -32.84375 C 8.441406 -34.84375 10.492188 -36.429688 12.984375 -37.609375 C 15.484375 -38.785156 18.476562 -39.375 21.96875 -39.375 C 24.5 -39.375 26.953125 -39 29.328125 -38.25 C 31.710938 -37.5 33.847656 -36.304688 35.734375 -34.671875 C 37.617188 -33.046875 39.113281 -30.925781 40.21875 -28.3125 C 41.332031 -25.707031 41.890625 -22.550781 41.890625 -18.84375 L 41.890625 -16.859375 L 14.140625 -16.859375 C 14.460938 -14.773438 15.117188 -13.125 16.109375 -11.90625 C 16.929688 -10.90625 17.921875 -10.164062 19.078125 -9.6875 C 20.234375 -9.207031 21.515625 -8.96875 22.921875 -8.96875 C 24.640625 -8.96875 26.097656 -9.398438 27.296875 -10.265625 C 28.503906 -11.128906 29.332031 -12.148438 29.78125 -13.328125 L 41.28125 -13.328125 C 40.550781 -10.785156 39.390625 -8.4375 37.796875 -6.28125 C 36.210938 -4.132812 34.140625 -2.414062 31.578125 -1.125 C 29.023438 0.164062 25.929688 0.8125 22.296875 0.8125 Z M 14.484375 -24.953125 L 30.328125 -24.953125 C 30.234375 -25.410156 30.0625 -25.957031 29.8125 -26.59375 C 29.5625 -27.226562 29.117188 -27.835938 28.484375 -28.421875 C 27.671875 -29.234375 26.742188 -29.8125 25.703125 -30.15625 C 24.660156 -30.5 23.550781 -30.671875 22.375 -30.671875 C 21.238281 -30.671875 20.132812 -30.5 19.0625 -30.15625 C 18 -29.8125 17.0625 -29.234375 16.25 -28.421875 C 15.613281 -27.785156 15.179688 -27.160156 14.953125 -26.546875 C 14.734375 -25.941406 14.578125 -25.410156 14.484375 -24.953125 Z M 14.484375 -24.953125 "/></g></g></g><g clip-path="url(#afda5ad65e)"><g clip-path="url(#92f83ae94b)"><path fill="#ff9800" d="M 89.46875 95.023438 L 89.46875 187.371094 L 12.460938 187.371094 L 12.460938 95.023438 Z M 89.46875 95.023438 " fill-opacity="1" fill-rule="nonzero"/></g></g><g clip-path="url(#bfd7ff04e4)"><g clip-path="url(#f9f679a63b)"><path fill="#ffffff" d="M 42.464844 113.140625 L 42.464844 169.296875 L -4.359375 169.296875 L -4.359375 113.140625 Z M 42.464844 113.140625 " fill-opacity="1" fill-rule="nonzero"/></g></g></svg>